<?xml version="1.0" standalone="no"?>
<!DOCTYPE svg PUBLIC "-//W3C//DTD SVG 20010904//EN"
 "http://www.w3.org/TR/2001/REC-SVG-20010904/DTD/svg10.dtd">
<svg version="1.0" xmlns="http://www.w3.org/2000/svg"
 width="1024.000000pt" height="1024.000000pt" viewBox="0 0 1024.000000 1024.000000"
 preserveAspectRatio="xMidYMid meet">

<g transform="translate(0.000000,1024.000000) scale(0.100000,-0.100000)"
fill="#ffffff" stroke="none">
<path d="M3103 8740 c-115 -23 -174 -81 -233 -225 -18 -44 -120 -282 -227
-530 -107 -247 -266 -614 -353 -815 -87 -201 -184 -423 -215 -495 -65 -149
-372 -858 -575 -1330 -75 -176 -191 -444 -258 -595 -142 -324 -679 -1562 -900
-2075 -85 -198 -168 -389 -183 -425 -47 -107 -36 -169 34 -208 29 -16 82 -17
662 -17 l630 0 50 25 c28 13 71 45 96 71 42 43 65 93 293 625 137 319 268 622
293 674 47 101 94 158 158 193 l40 22 1055 5 c1043 5 1055 5 1100 26 56 26 70
43 77 92 5 34 -11 75 -120 318 -319 713 -310 697 -421 754 l-69 35 -582 3
c-567 3 -582 3 -603 23 -13 11 -22 32 -22 49 0 16 41 125 91 242 49 117 147
348 216 513 607 1452 578 1383 605 1412 38 40 80 27 112 -35 13 -26 123 -292
361 -872 64 -157 188 -458 275 -670 151 -367 484 -1180 650 -1585 314 -768
611 -1494 663 -1623 73 -181 105 -225 199 -268 l63 -29 585 0 c543 0 588 1
632 18 26 10 57 30 68 44 37 48 36 52 -123 438 -103 251 -450 1090 -527 1275
-298 716 -337 809 -435 1040 -95 224 -141 335 -510 1215 -136 325 -286 685
-335 800 -48 116 -226 541 -395 945 -169 404 -318 758 -331 787 -28 59 -78
107 -143 137 -45 21 -57 21 -726 23 -374 0 -699 -3 -722 -7z"/>
<path d="M5686 8739 c-86 -20 -126 -66 -126 -144 0 -18 27 -128 60 -246 33
-118 96 -342 140 -499 44 -157 84 -301 90 -321 13 -47 43 -85 83 -107 29 -16
103 -17 922 -22 l890 -6 100 -27 c300 -81 526 -267 645 -531 98 -216 105 -503
19 -726 -89 -231 -309 -436 -560 -520 -165 -56 -222 -62 -704 -69 -430 -6
-452 -7 -490 -27 -55 -29 -85 -75 -85 -133 0 -49 54 -213 215 -656 127 -350
139 -377 191 -425 82 -75 173 -100 369 -100 320 0 649 51 906 139 834 288
1377 922 1504 1756 22 146 30 467 16 625 -96 1053 -707 1784 -1653 1980 -158
32 -304 50 -487 60 -226 12 -1993 11 -2045 -1z"/>
</g>
</svg>
