<?xml version="1.0" standalone="no"?>
<!DOCTYPE svg PUBLIC "-//W3C//DTD SVG 20010904//EN"
 "http://www.w3.org/TR/2001/REC-SVG-20010904/DTD/svg10.dtd">
<svg version="1.0" xmlns="http://www.w3.org/2000/svg"
 width="469.000000pt" height="469.000000pt" viewBox="0 0 469.000000 469.000000"
 preserveAspectRatio="xMidYMid meet">

<g transform="translate(0.000000,469.000000) scale(0.100000,-0.100000)"
fill="#000000" stroke="none">
<path d="M1810 3513 c-67 -142 -289 -592 -492 -1001 -204 -409 -367 -746 -363
-750 4 -4 98 -7 209 -7 155 0 207 3 219 13 9 8 59 100 111 205 52 106 105 202
119 215 23 22 35 24 233 32 115 5 289 10 388 10 138 0 177 3 174 13 -3 6 -28
82 -57 168 l-53 156 -105 7 c-59 3 -171 6 -250 6 -118 0 -143 3 -143 14 0 8 4
17 9 20 4 3 11 19 14 34 3 16 69 157 146 313 160 323 205 384 225 304 4 -14
100 -258 215 -543 115 -284 243 -611 286 -727 43 -115 84 -216 90 -223 12 -14
398 -31 429 -19 14 6 12 18 -18 99 -19 51 -120 298 -226 548 -105 250 -258
622 -340 825 -162 404 -214 525 -233 537 -7 4 -114 8 -238 8 l-225 0 -124
-257z"/>
<path d="M2790 3763 c-90 -2 -168 -7 -173 -12 -4 -4 15 -75 44 -157 28 -82 54
-160 58 -173 5 -16 18 -28 37 -33 16 -4 137 -8 269 -7 146 0 267 -4 308 -11
165 -29 281 -174 263 -327 -10 -88 -57 -170 -124 -217 -57 -39 -196 -66 -349
-66 -67 0 -124 -4 -127 -9 -3 -5 22 -91 57 -191 l62 -182 130 5 c165 7 269 33
404 98 87 43 117 63 180 127 204 205 238 480 97 767 -95 192 -241 310 -451
366 -68 18 -112 22 -300 24 -121 1 -294 0 -385 -2z"/>
<path d="M799 1373 c-24 -4 -33 -21 -103 -193 -42 -105 -76 -194 -76 -200 0
-5 17 -10 39 -10 36 0 39 2 55 45 17 44 19 45 61 45 23 0 56 3 74 6 29 6 32 4
50 -40 19 -44 22 -46 60 -46 l40 0 -30 83 c-27 73 -85 215 -120 290 -7 15 -15
26 -18 26 -3 -1 -18 -4 -32 -6z m37 -179 c9 -31 14 -57 12 -58 -8 -7 -88 -13
-88 -7 0 23 43 130 51 126 5 -4 16 -31 25 -61z"/>
<path d="M1053 1364 c-12 -32 7 -278 25 -313 44 -90 165 -109 246 -38 l38 32
1 162 2 161 -34 4 c-22 3 -35 0 -38 -10 -3 -7 -3 -71 -1 -141 3 -70 2 -135 -3
-143 -5 -9 -22 -21 -37 -27 -39 -16 -98 7 -112 44 -6 15 -10 85 -10 156 l0
129 -35 0 c-23 0 -38 -6 -42 -16z"/>
<path d="M1930 1180 l0 -200 34 0 c33 0 35 2 41 43 4 23 5 113 3 199 l-3 158
-37 0 -38 0 0 -200z"/>
<path d="M2200 1358 c-64 -33 -92 -87 -92 -177 0 -85 21 -133 74 -171 73 -53
182 -52 244 2 52 46 74 96 74 168 0 120 -65 189 -188 197 -56 4 -74 1 -112
-19z m154 -58 c66 -25 90 -150 40 -209 -34 -41 -93 -57 -133 -37 -51 27 -71
62 -71 126 0 43 5 64 21 84 34 43 89 57 143 36z"/>
<path d="M2778 1374 c-16 -5 -18 -23 -18 -200 l0 -194 40 0 40 0 0 65 0 65 50
0 c124 0 197 104 140 197 -31 52 -61 65 -152 69 -46 1 -91 1 -100 -2z m162
-79 c16 -8 32 -24 35 -35 9 -29 -19 -68 -53 -75 -15 -4 -35 -8 -45 -10 -39 -8
-47 5 -47 71 l0 64 40 0 c23 0 54 -7 70 -15z"/>
<path d="M3174 1373 c-27 -5 -34 -54 -34 -246 l0 -137 26 -10 c14 -6 72 -10
130 -10 l104 0 0 35 0 35 -94 0 -94 0 5 83 c6 90 -4 258 -15 256 -4 -1 -17 -4
-28 -6z"/>
<path d="M3690 1239 c-1 -97 -5 -149 -13 -160 -32 -42 -102 -52 -133 -18 -16
18 -19 40 -22 165 l-3 144 -36 0 -35 0 4 -152 c3 -138 5 -157 26 -189 60 -97
208 -91 260 11 20 40 22 59 22 187 0 108 -3 143 -12 143 -7 0 -23 3 -35 6
l-23 6 0 -143z"/>
<path d="M1490 1176 l0 -196 95 0 c76 0 104 4 135 20 76 39 117 124 106 219
-13 109 -64 143 -228 149 l-108 4 0 -196z m201 108 c78 -40 76 -186 -3 -218
-18 -8 -53 -16 -78 -17 l-45 -4 -3 128 -3 127 51 0 c28 0 65 -7 81 -16z"/>
<path d="M3899 1347 c-37 -25 -55 -71 -45 -112 10 -38 50 -71 109 -91 62 -20
77 -31 77 -55 0 -31 -44 -53 -93 -45 -86 13 -82 14 -85 -26 -3 -35 -2 -36 37
-43 111 -19 177 1 206 61 38 80 3 140 -105 178 -50 18 -66 29 -68 45 -8 49 52
66 123 37 29 -13 35 -13 35 -1 0 7 3 21 6 29 8 22 -51 46 -114 46 -34 0 -59
-7 -83 -23z"/>
</g>
</svg>
